<?xml version="1.0" encoding="utf-8"?>
<!-- Generator: Adobe Illustrator 24.1.2, SVG Export Plug-In . SVG Version: 6.00 Build 0)  -->
<svg version="1.1" id="Warstwa_3" xmlns="http://www.w3.org/2000/svg" xmlns:xlink="http://www.w3.org/1999/xlink" x="0px" y="0px"
	 viewBox="0 0 430 430" style="enable-background:new 0 0 430 430;" xml:space="preserve">
<style type="text/css">
	.st0{fill:#121331;}
	.st1{fill:#08A88A;}
	.st2{fill:none;stroke:#08A88A;stroke-width:12.25;stroke-miterlimit:14;}
	.st3{fill-opacity:0;}
	.st4{fill:#131432;}
	.st5{fill:none;}
</style>
<g>
	<path class="st0" d="M59.58,376.82c-1.64,0-3.28-0.63-4.53-1.88c-2.5-2.5-2.5-6.56,0-9.06L365.9,55.05c2.5-2.5,6.55-2.5,9.06,0
		c2.5,2.5,2.5,6.56,0,9.06L64.11,374.95C62.86,376.2,61.22,376.82,59.58,376.82z"/>
	<path class="st0" d="M370.42,376.83c-1.64,0-3.28-0.63-4.53-1.88L55.05,64.11c-2.5-2.5-2.5-6.56,0-9.06c2.5-2.5,6.55-2.5,9.06,0
		L374.95,365.9c2.5,2.5,2.5,6.56,0,9.06C373.7,376.2,372.06,376.83,370.42,376.83z"/>
</g>
</svg>
